<svg xmlns="http://www.w3.org/2000/svg" viewBox="0 0 800 600" fill="none">
  <defs>
    <linearGradient id="skyGradient" x1="0%" y1="0%" x2="0%" y2="100%">
      <stop offset="0%" style="stop-color:#87CEEB;stop-opacity:1" />
      <stop offset="50%" style="stop-color:#B0E0E6;stop-opacity:1" />
      <stop offset="100%" style="stop-color:#E0F6FF;stop-opacity:1" />
    </linearGradient>
    <linearGradient id="tableGradient" x1="0%" y1="0%" x2="100%" y2="100%">
      <stop offset="0%" style="stop-color:#2C2C2C;stop-opacity:1" />
      <stop offset="50%" style="stop-color:#404040;stop-opacity:1" />
      <stop offset="100%" style="stop-color:#1A1A1A;stop-opacity:1" />
    </linearGradient>
    <linearGradient id="chairGradient" x1="0%" y1="0%" x2="100%" y2="100%">
      <stop offset="0%" style="stop-color:#F5F5F5;stop-opacity:1" />
      <stop offset="100%" style="stop-color:#E0E0E0;stop-opacity:1" />
    </linearGradient>
    <linearGradient id="buildingGradient" x1="0%" y1="0%" x2="100%" y2="100%">
      <stop offset="0%" style="stop-color:#708090;stop-opacity:1" />
      <stop offset="100%" style="stop-color:#2F4F4F;stop-opacity:1" />
    </linearGradient>
  </defs>
  
  <!-- Sky Background -->
  <rect width="800" height="600" fill="url(#skyGradient)"/>
  
  <!-- City Skyline (through window) -->
  <g transform="translate(100, 100)">
    <!-- Building 1 -->
    <rect x="0" y="0" width="60" height="200" fill="url(#buildingGradient)"/>
    <rect x="5" y="5" width="50" height="190" fill="url(#buildingGradient)" opacity="0.8"/>
    <!-- Windows -->
    <g stroke="#FFD700" stroke-width="1" opacity="0.6">
      <line x1="10" y1="20" x2="50" y2="20"/>
      <line x1="10" y1="40" x2="50" y2="40"/>
      <line x1="10" y1="60" x2="50" y2="60"/>
      <line x1="10" y1="80" x2="50" y2="80"/>
      <line x1="10" y1="100" x2="50" y2="100"/>
      <line x1="10" y1="120" x2="50" y2="120"/>
      <line x1="10" y1="140" x2="50" y2="140"/>
      <line x1="10" y1="160" x2="50" y2="160"/>
      <line x1="10" y1="180" x2="50" y2="180"/>
    </g>
    
    <!-- Building 2 -->
    <rect x="80" y="0" width="80" height="250" fill="url(#buildingGradient)"/>
    <rect x="85" y="5" width="70" height="240" fill="url(#buildingGradient)" opacity="0.8"/>
    <!-- Windows -->
    <g stroke="#FFD700" stroke-width="1" opacity="0.6">
      <line x1="90" y1="20" x2="160" y2="20"/>
      <line x1="90" y1="40" x2="160" y2="40"/>
      <line x1="90" y1="60" x2="160" y2="60"/>
      <line x1="90" y1="80" x2="160" y2="80"/>
      <line x1="90" y1="100" x2="160" y2="100"/>
      <line x1="90" y1="120" x2="160" y2="120"/>
      <line x1="90" y1="140" x2="160" y2="140"/>
      <line x1="90" y1="160" x2="160" y2="160"/>
      <line x1="90" y1="180" x2="160" y2="180"/>
      <line x1="90" y1="200" x2="160" y2="200"/>
      <line x1="90" y1="220" x2="160" y2="220"/>
      <line x1="90" y1="240" x2="160" y2="240"/>
    </g>
    
    <!-- Building 3 -->
    <rect x="180" y="0" width="70" height="180" fill="url(#buildingGradient)"/>
    <rect x="185" y="5" width="60" height="170" fill="url(#buildingGradient)" opacity="0.8"/>
    <!-- Windows -->
    <g stroke="#FFD700" stroke-width="1" opacity="0.6">
      <line x1="190" y1="20" x2="240" y2="20"/>
      <line x1="190" y1="40" x2="240" y2="40"/>
      <line x1="190" y1="60" x2="240" y2="60"/>
      <line x1="190" y1="80" x2="240" y2="80"/>
      <line x1="190" y1="100" x2="240" y2="100"/>
      <line x1="190" y1="120" x2="240" y2="120"/>
      <line x1="190" y1="140" x2="240" y2="140"/>
      <line x1="190" y1="160" x2="240" y2="160"/>
    </g>
    
    <!-- Building 4 -->
    <rect x="270" y="0" width="90" height="220" fill="url(#buildingGradient)"/>
    <rect x="275" y="5" width="80" height="210" fill="url(#buildingGradient)" opacity="0.8"/>
    <!-- Windows -->
    <g stroke="#FFD700" stroke-width="1" opacity="0.6">
      <line x1="280" y1="20" x2="360" y2="20"/>
      <line x1="280" y1="40" x2="360" y2="40"/>
      <line x1="280" y1="60" x2="360" y2="60"/>
      <line x1="280" y1="80" x2="360" y2="80"/>
      <line x1="280" y1="100" x2="360" y2="100"/>
      <line x1="280" y1="120" x2="360" y2="120"/>
      <line x1="280" y1="140" x2="360" y2="140"/>
      <line x1="280" y1="160" x2="360" y2="160"/>
      <line x1="280" y1="180" x2="360" y2="180"/>
      <line x1="280" y1="200" x2="360" y2="200"/>
    </g>
    
    <!-- Building 5 -->
    <rect x="380" y="0" width="75" height="190" fill="url(#buildingGradient)"/>
    <rect x="385" y="5" width="65" height="180" fill="url(#buildingGradient)" opacity="0.8"/>
    <!-- Windows -->
    <g stroke="#FFD700" stroke-width="1" opacity="0.6">
      <line x1="390" y1="20" x2="450" y2="20"/>
      <line x1="390" y1="40" x2="450" y2="40"/>
      <line x1="390" y1="60" x2="450" y2="60"/>
      <line x1="390" y1="80" x2="450" y2="80"/>
      <line x1="390" y1="100" x2="450" y2="100"/>
      <line x1="390" y1="120" x2="450" y2="120"/>
      <line x1="390" y1="140" x2="450" y2="140"/>
      <line x1="390" y1="160" x2="450" y2="160"/>
      <line x1="390" y1="180" x2="450" y2="180"/>
    </g>
    
    <!-- Building 6 -->
    <rect x="475" y="0" width="65" height="210" fill="url(#buildingGradient)"/>
    <rect x="480" y="5" width="55" height="200" fill="url(#buildingGradient)" opacity="0.8"/>
    <!-- Windows -->
    <g stroke="#FFD700" stroke-width="1" opacity="0.6">
      <line x1="485" y1="20" x2="535" y2="20"/>
      <line x1="485" y1="40" x2="535" y2="40"/>
      <line x1="485" y1="60" x2="535" y2="60"/>
      <line x1="485" y1="80" x2="535" y2="80"/>
      <line x1="485" y1="100" x2="535" y2="100"/>
      <line x1="485" y1="120" x2="535" y2="120"/>
      <line x1="485" y1="140" x2="535" y2="140"/>
      <line x1="485" y1="160" x2="535" y2="160"/>
      <line x1="485" y1="180" x2="535" y2="180"/>
      <line x1="485" y1="200" x2="535" y2="200"/>
    </g>
  </g>
  
  <!-- Window Frame -->
  <rect x="80" y="80" width="640" height="240" fill="none" stroke="#333" stroke-width="3"/>
  <rect x="85" y="85" width="630" height="230" fill="rgba(255,255,255,0.1)"/>
  
  <!-- Conference Table -->
  <rect x="100" y="400" width="600" height="20" fill="url(#tableGradient)"/>
  <rect x="120" y="420" width="560" height="10" fill="#1A1A1A"/>
  
  <!-- Conference Chairs -->
  <g transform="translate(150, 380)">
    <!-- Chair 1 -->
    <g fill="url(#chairGradient)" stroke="#CCC" stroke-width="1">
      <rect x="0" y="0" width="50" height="60" rx="5"/>
      <rect x="5" y="5" width="40" height="50" rx="3"/>
    </g>
    <!-- Chair stitching -->
    <g stroke="#999" stroke-width="1" opacity="0.6">
      <line x1="10" y1="15" x2="40" y2="15"/>
      <line x1="10" y1="25" x2="40" y2="25"/>
      <line x1="10" y1="35" x2="40" y2="35"/>
      <line x1="10" y1="45" x2="40" y2="45"/>
    </g>
  </g>
  
  <g transform="translate(250, 380)">
    <!-- Chair 2 -->
    <g fill="url(#chairGradient)" stroke="#CCC" stroke-width="1">
      <rect x="0" y="0" width="50" height="60" rx="5"/>
      <rect x="5" y="5" width="40" height="50" rx="3"/>
    </g>
    <!-- Chair stitching -->
    <g stroke="#999" stroke-width="1" opacity="0.6">
      <line x1="10" y1="15" x2="40" y2="15"/>
      <line x1="10" y1="25" x2="40" y2="25"/>
      <line x1="10" y1="35" x2="40" y2="35"/>
      <line x1="10" y1="45" x2="40" y2="45"/>
    </g>
  </g>
  
  <g transform="translate(350, 380)">
    <!-- Chair 3 -->
    <g fill="url(#chairGradient)" stroke="#CCC" stroke-width="1">
      <rect x="0" y="0" width="50" height="60" rx="5"/>
      <rect x="5" y="5" width="40" height="50" rx="3"/>
    </g>
    <!-- Chair stitching -->
    <g stroke="#999" stroke-width="1" opacity="0.6">
      <line x1="10" y1="15" x2="40" y2="15"/>
      <line x1="10" y1="25" x2="40" y2="25"/>
      <line x1="10" y1="35" x2="40" y2="35"/>
      <line x1="10" y1="45" x2="40" y2="45"/>
    </g>
  </g>
  
  <g transform="translate(450, 380)">
    <!-- Chair 4 -->
    <g fill="url(#chairGradient)" stroke="#CCC" stroke-width="1">
      <rect x="0" y="0" width="50" height="60" rx="5"/>
      <rect x="5" y="5" width="40" height="50" rx="3"/>
    </g>
    <!-- Chair stitching -->
    <g stroke="#999" stroke-width="1" opacity="0.6">
      <line x1="10" y1="15" x2="40" y2="15"/>
      <line x1="10" y1="25" x2="40" y2="25"/>
      <line x1="10" y1="35" x2="40" y2="35"/>
      <line x1="10" y1="45" x2="40" y2="45"/>
    </g>
  </g>
  
  <!-- Table Items -->
  <g transform="translate(200, 410)">
    <!-- Laptop -->
    <rect x="0" y="0" width="80" height="50" fill="#333" rx="3"/>
    <rect x="5" y="5" width="70" height="40" fill="#000"/>
    <rect x="10" y="10" width="60" height="30" fill="#1a1a1a"/>
  </g>
  
  <g transform="translate(320, 410)">
    <!-- Documents -->
    <rect x="0" y="0" width="60" height="80" fill="#FFF" stroke="#CCC" stroke-width="1" rx="2"/>
    <line x1="5" y1="15" x2="55" y2="15" stroke="#333" stroke-width="1"/>
    <line x1="5" y1="25" x2="45" y2="25" stroke="#333" stroke-width="1"/>
    <line x1="5" y1="35" x2="50" y2="35" stroke="#333" stroke-width="1"/>
    <line x1="5" y1="45" x2="40" y2="45" stroke="#333" stroke-width="1"/>
    <line x1="5" y1="55" x2="55" y2="55" stroke="#333" stroke-width="1"/>
    <line x1="5" y1="65" x2="35" y2="65" stroke="#333" stroke-width="1"/>
  </g>
  
  <g transform="translate(420, 410)">
    <!-- Coffee cup -->
    <ellipse cx="20" cy="20" rx="15" ry="20" fill="#FFF" stroke="#CCC" stroke-width="2"/>
    <ellipse cx="20" cy="40" rx="12" ry="15" fill="#FFF" stroke="#CCC" stroke-width="2"/>
    <path d="M 35 20 Q 40 20 40 25 Q 40 30 35 30" stroke="#CCC" stroke-width="2" fill="none"/>
    <ellipse cx="20" cy="45" rx="18" ry="5" fill="#FFF" stroke="#CCC" stroke-width="2"/>
  </g>
  
  <!-- Lighting Effect -->
  <defs>
    <radialGradient id="lightGradient" cx="50%" cy="50%" r="50%">
      <stop offset="0%" style="stop-color:rgba(255,255,255,0.3);stop-opacity:1" />
      <stop offset="100%" style="stop-color:rgba(255,255,255,0);stop-opacity:1" />
    </radialGradient>
  </defs>
  <ellipse cx="400" cy="300" rx="300" ry="200" fill="url(#lightGradient)"/>
</svg>
