<svg xmlns="http://www.w3.org/2000/svg" viewBox="0 0 800 600" fill="none">
  <defs>
    <linearGradient id="deskGradient" x1="0%" y1="0%" x2="100%" y2="100%">
      <stop offset="0%" style="stop-color:#8B4513;stop-opacity:1" />
      <stop offset="50%" style="stop-color:#A0522D;stop-opacity:1" />
      <stop offset="100%" style="stop-color:#654321;stop-opacity:1" />
    </linearGradient>
    <linearGradient id="notebookGradient" x1="0%" y1="0%" x2="100%" y2="100%">
      <stop offset="0%" style="stop-color:#FFFFFF;stop-opacity:1" />
      <stop offset="100%" style="stop-color:#F8F8F8;stop-opacity:1" />
    </linearGradient>
    <linearGradient id="scalesGradient" x1="0%" y1="0%" x2="100%" y2="100%">
      <stop offset="0%" style="stop-color:#FFD700;stop-opacity:1" />
      <stop offset="100%" style="stop-color:#B8860B;stop-opacity:1" />
    </linearGradient>
    <linearGradient id="bookGradient" x1="0%" y1="0%" x2="100%" y2="100%">
      <stop offset="0%" style="stop-color:#2C1810;stop-opacity:1" />
      <stop offset="100%" style="stop-color:#8B4513;stop-opacity:1" />
    </linearGradient>
    <linearGradient id="gavelGradient" x1="0%" y1="0%" x2="100%" y2="100%">
      <stop offset="0%" style="stop-color:#CD853F;stop-opacity:1" />
      <stop offset="100%" style="stop-color:#8B4513;stop-opacity:1" />
    </linearGradient>
  </defs>
  
  <!-- Background -->
  <rect width="800" height="600" fill="#F5F5F5"/>
  
  <!-- Blurred Background -->
  <g opacity="0.3" transform="translate(50, 50)">
    <!-- Window blinds -->
    <g stroke="#CCC" stroke-width="2">
      <line x1="0" y1="50" x2="800" y2="50"/>
      <line x1="0" y1="70" x2="800" y2="70"/>
      <line x1="0" y1="90" x2="800" y2="90"/>
      <line x1="0" y1="110" x2="800" y2="110"/>
      <line x1="0" y1="130" x2="800" y2="130"/>
      <line x1="0" y1="150" x2="800" y2="150"/>
      <line x1="0" y1="170" x2="800" y2="170"/>
      <line x1="0" y1="190" x2="800" y2="190"/>
    </g>
  </g>
  
  <!-- Desk Surface -->
  <rect x="100" y="350" width="600" height="20" fill="url(#deskGradient)"/>
  <rect x="100" y="370" width="600" height="10" fill="#654321"/>
  
  <!-- Person (blurred background) -->
  <g opacity="0.4" transform="translate(500, 200)">
    <!-- Head -->
    <circle cx="0" cy="0" r="25" fill="#333"/>
    <!-- Body -->
    <rect x="-30" y="25" width="60" height="80" fill="#333"/>
    <!-- Arms -->
    <ellipse cx="-40" cy="50" rx="15" ry="25" fill="#333"/>
    <ellipse cx="40" cy="50" rx="15" ry="25" fill="#333"/>
  </g>
  
  <!-- Notebook (in focus) -->
  <g transform="translate(400, 250)">
    <!-- Spiral binding -->
    <g stroke="#CCC" stroke-width="3">
      <path d="M -60 0 Q -60 -5 -55 -5 Q -50 -5 -50 0 Q -50 5 -55 5 Q -60 5 -60 0" fill="none"/>
      <path d="M -50 0 Q -50 -5 -45 -5 Q -40 -5 -40 0 Q -40 5 -45 5 Q -50 5 -50 0" fill="none"/>
      <path d="M -40 0 Q -40 -5 -35 -5 Q -30 -5 -30 0 Q -30 5 -35 5 Q -40 5 -40 0" fill="none"/>
      <path d="M -30 0 Q -30 -5 -25 -5 Q -20 -5 -20 0 Q -20 5 -25 5 Q -30 5 -30 0" fill="none"/>
      <path d="M -20 0 Q -20 -5 -15 -5 Q -10 -5 -10 0 Q -10 5 -15 5 Q -20 5 -20 0" fill="none"/>
      <path d="M -10 0 Q -10 -5 -5 -5 Q 0 -5 0 0 Q 0 5 -5 5 Q -10 5 -10 0" fill="none"/>
      <path d="M 0 0 Q 0 -5 5 -5 Q 10 -5 10 0 Q 10 5 5 5 Q 0 5 0 0" fill="none"/>
      <path d="M 10 0 Q 10 -5 15 -5 Q 20 -5 20 0 Q 20 5 15 5 Q 10 5 10 0" fill="none"/>
      <path d="M 20 0 Q 20 -5 25 -5 Q 30 -5 30 0 Q 30 5 25 5 Q 20 5 20 0" fill="none"/>
      <path d="M 30 0 Q 30 -5 35 -5 Q 40 -5 40 0 Q 40 5 35 5 Q 30 5 30 0" fill="none"/>
      <path d="M 40 0 Q 40 -5 45 -5 Q 50 -5 50 0 Q 50 5 45 5 Q 40 5 40 0" fill="none"/>
      <path d="M 50 0 Q 50 -5 55 -5 Q 60 -5 60 0 Q 60 5 55 5 Q 50 5 50 0" fill="none"/>
    </g>
    
    <!-- Paper -->
    <rect x="-60" y="-5" width="120" height="160" fill="url(#notebookGradient)" stroke="#CCC" stroke-width="1" rx="3"/>
    
    <!-- Lines on paper -->
    <g stroke="#333" stroke-width="1">
      <line x1="-50" y1="10" x2="50" y2="10"/>
      <line x1="-50" y1="20" x2="50" y2="20"/>
      <line x1="-50" y1="30" x2="50" y2="30"/>
      <line x1="-50" y1="40" x2="50" y2="40"/>
      <line x1="-50" y1="50" x2="50" y2="50"/>
      <line x1="-50" y1="60" x2="50" y2="60"/>
      <line x1="-50" y1="70" x2="50" y2="70"/>
      <line x1="-50" y1="80" x2="50" y2="80"/>
      <line x1="-50" y1="90" x2="50" y2="90"/>
      <line x1="-50" y1="100" x2="50" y2="100"/>
      <line x1="-50" y1="110" x2="50" y2="110"/>
      <line x1="-50" y1="120" x2="50" y2="120"/>
      <line x1="-50" y1="130" x2="50" y2="130"/>
      <line x1="-50" y1="140" x2="50" y2="140"/>
      <line x1="-50" y1="150" x2="50" y2="150"/>
    </g>
    
    <!-- Writing hand -->
    <g transform="translate(-30, 20)">
      <!-- Hand -->
      <ellipse cx="0" cy="0" rx="8" ry="12" fill="#F5DEB3"/>
      <!-- Pen -->
      <line x1="0" y1="0" x2="0" y2="-20" stroke="#333" stroke-width="2"/>
      <line x1="0" y1="-20" x2="0" y2="-25" stroke="#FFD700" stroke-width="3"/>
    </g>
    
    <!-- Supporting hand -->
    <g transform="translate(30, 20)">
      <ellipse cx="0" cy="0" rx="8" ry="12" fill="#F5DEB3"/>
    </g>
  </g>
  
  <!-- Scales of Justice -->
  <g transform="translate(200, 200)">
    <g fill="url(#scalesGradient)" stroke="#B8860B" stroke-width="3">
      <!-- Left Scale -->
      <ellipse cx="0" cy="0" rx="25" ry="12"/>
      <line x1="0" y1="0" x2="0" y2="40" stroke="#B8860B" stroke-width="4"/>
      
      <!-- Right Scale -->
      <ellipse cx="80" cy="0" rx="25" ry="12"/>
      <line x1="80" y1="0" x2="80" y2="40" stroke="#B8860B" stroke-width="4"/>
      
      <!-- Central Bar -->
      <line x1="0" y1="40" x2="80" y2="40" stroke="#B8860B" stroke-width="5"/>
      <line x1="40" y1="40" x2="40" y2="70" stroke="#B8860B" stroke-width="4"/>
    </g>
    
    <!-- Scale weights -->
    <circle cx="0" cy="-5" r="15" fill="#B8860B" opacity="0.8"/>
    <circle cx="80" cy="-5" r="15" fill="#B8860B" opacity="0.8"/>
  </g>
  
  <!-- Books Stack -->
  <g transform="translate(600, 250)">
    <!-- Book 1 (bottom) -->
    <rect x="0" y="0" width="80" height="100" fill="url(#bookGradient)" stroke="#654321" stroke-width="2" rx="3"/>
    <rect x="5" y="5" width="70" height="8" fill="#8B0000"/>
    
    <!-- Book 2 (middle) -->
    <rect x="5" y="-5" width="80" height="100" fill="url(#bookGradient)" stroke="#654321" stroke-width="2" rx="3"/>
    <rect x="10" y="0" width="70" height="8" fill="#8B0000"/>
    
    <!-- Book 3 (top) -->
    <rect x="10" y="-10" width="80" height="100" fill="url(#bookGradient)" stroke="#654321" stroke-width="2" rx="3"/>
    <rect x="15" y="-5" width="70" height="8" fill="#8B0000"/>
  </g>
  
  <!-- Gavel -->
  <g transform="translate(650, 200)">
    <g fill="url(#gavelGradient)" stroke="#8B4513" stroke-width="2">
      <!-- Handle -->
      <rect x="-5" y="0" width="10" height="40" rx="5"/>
      
      <!-- Head -->
      <rect x="-20" y="-15" width="40" height="25" rx="5"/>
    </g>
    
    <!-- Wood grain -->
    <g stroke="#654321" stroke-width="1" opacity="0.6">
      <line x1="-15" y1="-10" x2="15" y2="-10"/>
      <line x1="-15" y1="-5" x2="15" y2="-5"/>
      <line x1="-15" y1="0" x2="15" y2="0"/>
      <line x1="-15" y1="5" x2="15" y2="5"/>
    </g>
  </g>
  
  <!-- Laptop -->
  <g transform="translate(150, 280)" opacity="0.7">
    <rect x="0" y="0" width="100" height="60" fill="#333" rx="3"/>
    <rect x="5" y="5" width="90" height="50" fill="#000"/>
    <rect x="10" y="10" width="80" height="40" fill="#1a1a1a"/>
  </g>
  
  <!-- Lighting Effect -->
  <defs>
    <radialGradient id="lightGradient" cx="50%" cy="50%" r="50%">
      <stop offset="0%" style="stop-color:rgba(255,255,255,0.2);stop-opacity:1" />
      <stop offset="100%" style="stop-color:rgba(255,255,255,0);stop-opacity:1" />
    </radialGradient>
  </defs>
  <ellipse cx="400" cy="200" rx="300" ry="200" fill="url(#lightGradient)"/>
</svg>
