<svg xmlns="http://www.w3.org/2000/svg" viewBox="0 0 400 600" fill="none">
  <defs>
    <linearGradient id="statueGradient" x1="0%" y1="0%" x2="100%" y2="100%">
      <stop offset="0%" style="stop-color:#C0C0C0;stop-opacity:1" />
      <stop offset="50%" style="stop-color:#E0E0E0;stop-opacity:1" />
      <stop offset="100%" style="stop-color:#A0A0A0;stop-opacity:1" />
    </linearGradient>
    <linearGradient id="bookGradient" x1="0%" y1="0%" x2="100%" y2="100%">
      <stop offset="0%" style="stop-color:#2C1810;stop-opacity:1" />
      <stop offset="100%" style="stop-color:#8B4513;stop-opacity:1" />
    </linearGradient>
  </defs>
  
  <!-- Background Books (blurred effect) -->
  <g opacity="0.3" transform="translate(50, 100)">
    <!-- Book 1 -->
    <rect x="0" y="0" width="60" height="80" fill="url(#bookGradient)" rx="2"/>
    <rect x="5" y="5" width="50" height="5" fill="#8B0000"/>
    <!-- Book 2 -->
    <rect x="70" y="0" width="60" height="80" fill="url(#bookGradient)" rx="2"/>
    <rect x="75" y="5" width="50" height="5" fill="#8B0000"/>
    <!-- Book 3 -->
    <rect x="140" y="0" width="60" height="80" fill="url(#bookGradient)" rx="2"/>
    <rect x="145" y="5" width="50" height="5" fill="#8B0000"/>
    <!-- Book 4 -->
    <rect x="210" y="0" width="60" height="80" fill="url(#bookGradient)" rx="2"/>
    <rect x="215" y="5" width="50" height="5" fill="#8B0000"/>
    <!-- Book 5 -->
    <rect x="280" y="0" width="60" height="80" fill="url(#bookGradient)" rx="2"/>
    <rect x="285" y="5" width="50" height="5" fill="#8B0000"/>
  </g>
  
  <!-- Lady Justice Statue -->
  <g fill="url(#statueGradient)" stroke="#888" stroke-width="1">
    <!-- Base -->
    <rect x="150" y="500" width="100" height="20" rx="5"/>
    <rect x="160" y="480" width="80" height="20" rx="3"/>
    
    <!-- Robe -->
    <path d="M 170 480 L 190 400 L 210 400 L 230 480 Z" fill="url(#statueGradient)"/>
    <path d="M 180 400 L 200 350 L 220 400 Z" fill="url(#statueGradient)"/>
    
    <!-- Body -->
    <ellipse cx="200" cy="380" rx="15" ry="25"/>
    
    <!-- Head -->
    <circle cx="200" cy="340" r="20"/>
    
    <!-- Hair -->
    <path d="M 180 340 Q 200 320 220 340 Q 200 330 180 340" fill="#8B4513"/>
    
    <!-- Left Arm (holding scales) -->
    <ellipse cx="170" cy="370" rx="8" ry="25" transform="rotate(-30 170 370)"/>
    <circle cx="160" cy="350" r="12"/>
    
    <!-- Right Arm -->
    <ellipse cx="230" cy="370" rx="8" ry="25" transform="rotate(30 230 370)"/>
    <circle cx="240" cy="350" r="12"/>
    
    <!-- Scales of Justice -->
    <g fill="#B8860B" stroke="#8B4513" stroke-width="2">
      <!-- Left Scale -->
      <ellipse cx="140" cy="320" rx="15" ry="8"/>
      <line x1="140" y1="320" x2="140" y2="340" stroke="#8B4513" stroke-width="3"/>
      
      <!-- Right Scale -->
      <ellipse cx="260" cy="320" rx="15" ry="8"/>
      <line x1="260" y1="320" x2="260" y2="340" stroke="#8B4513" stroke-width="3"/>
      
      <!-- Central Bar -->
      <line x1="140" y1="340" x2="260" y2="340" stroke="#8B4513" stroke-width="4"/>
      <line x1="200" y1="340" x2="200" y2="360" stroke="#8B4513" stroke-width="3"/>
    </g>
    
    <!-- Face Details -->
    <circle cx="195" cy="335" r="2" fill="#333"/>
    <circle cx="205" cy="335" r="2" fill="#333"/>
    <path d="M 195 345 Q 200 350 205 345" stroke="#333" stroke-width="1" fill="none"/>
  </g>
  
  <!-- Highlights -->
  <ellipse cx="190" cy="330" rx="5" ry="8" fill="rgba(255,255,255,0.6)"/>
  <ellipse cx="210" cy="330" rx="5" ry="8" fill="rgba(255,255,255,0.6)"/>
  
  <!-- Scale Weights -->
  <circle cx="140" cy="315" r="8" fill="#B8860B" opacity="0.8"/>
  <circle cx="260" cy="315" r="8" fill="#B8860B" opacity="0.8"/>
</svg>
