<svg xmlns="http://www.w3.org/2000/svg" viewBox="0 0 800 600" fill="none">
  <defs>
    <linearGradient id="deskGradient" x1="0%" y1="0%" x2="100%" y2="100%">
      <stop offset="0%" style="stop-color:#8B4513;stop-opacity:1" />
      <stop offset="50%" style="stop-color:#A0522D;stop-opacity:1" />
      <stop offset="100%" style="stop-color:#654321;stop-opacity:1" />
    </linearGradient>
    <linearGradient id="coffeeGradient" x1="0%" y1="0%" x2="100%" y2="100%">
      <stop offset="0%" style="stop-color:#FFFFFF;stop-opacity:1" />
      <stop offset="100%" style="stop-color:#F5F5F5;stop-opacity:1" />
    </linearGradient>
    <linearGradient id="documentGradient" x1="0%" y1="0%" x2="100%" y2="100%">
      <stop offset="0%" style="stop-color:#FFFFFF;stop-opacity:1" />
      <stop offset="100%" style="stop-color:#F8F8F8;stop-opacity:1" />
    </linearGradient>
    <linearGradient id="scalesGradient" x1="0%" y1="0%" x2="100%" y2="100%">
      <stop offset="0%" style="stop-color:#FFD700;stop-opacity:1" />
      <stop offset="100%" style="stop-color:#B8860B;stop-opacity:1" />
    </linearGradient>
  </defs>
  
  <!-- Background (blurred) -->
  <rect width="800" height="600" fill="#F0F0F0"/>
  
  <!-- Blurred Background Elements -->
  <g opacity="0.3" transform="translate(50, 50)">
    <!-- Blurred person -->
    <ellipse cx="600" cy="200" rx="30" ry="40" fill="#333"/>
    <rect x="570" y="240" width="60" height="80" fill="#333"/>
    
    <!-- Blurred bookshelves -->
    <rect x="650" y="100" width="100" height="200" fill="#8B4513"/>
    <g stroke="#654321" stroke-width="2">
      <line x1="650" y1="120" x2="750" y2="120"/>
      <line x1="650" y1="140" x2="750" y2="140"/>
      <line x1="650" y1="160" x2="750" y2="160"/>
      <line x1="650" y1="180" x2="750" y2="180"/>
      <line x1="650" y1="200" x2="750" y2="200"/>
      <line x1="650" y1="220" x2="750" y2="220"/>
      <line x1="650" y1="240" x2="750" y2="240"/>
      <line x1="650" y1="260" x2="750" y2="260"/>
      <line x1="650" y1="280" x2="750" y2="280"/>
    </g>
  </g>
  
  <!-- Desk Surface -->
  <rect x="100" y="300" width="600" height="20" fill="url(#deskGradient)"/>
  <rect x="100" y="320" width="600" height="10" fill="#654321"/>
  
  <!-- Coffee Cup (in focus) -->
  <g fill="url(#coffeeGradient)" stroke="#DDD" stroke-width="2">
    <!-- Cup -->
    <ellipse cx="400" cy="280" rx="25" ry="30"/>
    <ellipse cx="400" cy="310" rx="20" ry="25"/>
    
    <!-- Handle -->
    <path d="M 425 280 Q 435 280 435 290 Q 435 300 425 300" stroke="#DDD" stroke-width="3" fill="none"/>
    
    <!-- Saucer -->
    <ellipse cx="400" cy="325" rx="30" ry="8"/>
  </g>
  
  <!-- Coffee inside cup -->
  <ellipse cx="400" cy="285" rx="20" ry="25" fill="#8B4513" opacity="0.8"/>
  <ellipse cx="400" cy="280" rx="15" ry="20" fill="#654321" opacity="0.6"/>
  
  <!-- Steam -->
  <g stroke="#CCC" stroke-width="2" opacity="0.6">
    <path d="M 395 250 Q 390 240 385 230" fill="none"/>
    <path d="M 400 250 Q 395 240 390 230" fill="none"/>
    <path d="M 405 250 Q 410 240 415 230" fill="none"/>
  </g>
  
  <!-- Documents Stack -->
  <g transform="translate(500, 250)">
    <!-- Document 1 (bottom) -->
    <rect x="0" y="0" width="120" height="160" fill="url(#documentGradient)" stroke="#CCC" stroke-width="1" rx="3"/>
    <line x1="10" y1="20" x2="110" y2="20" stroke="#333" stroke-width="1"/>
    <line x1="10" y1="30" x2="90" y2="30" stroke="#333" stroke-width="1"/>
    <line x1="10" y1="40" x2="100" y2="40" stroke="#333" stroke-width="1"/>
    <line x1="10" y1="50" x2="85" y2="50" stroke="#333" stroke-width="1"/>
    <line x1="10" y1="60" x2="95" y2="60" stroke="#333" stroke-width="1"/>
    <line x1="10" y1="70" x2="80" y2="70" stroke="#333" stroke-width="1"/>
    <line x1="10" y1="80" x2="105" y2="80" stroke="#333" stroke-width="1"/>
    <line x1="10" y1="90" x2="75" y2="90" stroke="#333" stroke-width="1"/>
    <line x1="10" y1="100" x2="110" y2="100" stroke="#333" stroke-width="1"/>
    <line x1="10" y1="110" x2="85" y2="110" stroke="#333" stroke-width="1"/>
    <line x1="10" y1="120" x2="95" y2="120" stroke="#333" stroke-width="1"/>
    <line x1="10" y1="130" x2="80" y2="130" stroke="#333" stroke-width="1"/>
    <line x1="10" y1="140" x2="100" y2="140" stroke="#333" stroke-width="1"/>
    
    <!-- Document 2 (middle) -->
    <rect x="5" y="-5" width="120" height="160" fill="url(#documentGradient)" stroke="#CCC" stroke-width="1" rx="3"/>
    <line x1="15" y1="15" x2="115" y2="15" stroke="#333" stroke-width="1"/>
    <line x1="15" y1="25" x2="95" y2="25" stroke="#333" stroke-width="1"/>
    <line x1="15" y1="35" x2="105" y2="35" stroke="#333" stroke-width="1"/>
    <line x1="15" y1="45" x2="90" y2="45" stroke="#333" stroke-width="1"/>
    <line x1="15" y1="55" x2="100" y2="55" stroke="#333" stroke-width="1"/>
    <line x1="15" y1="65" x2="85" y2="65" stroke="#333" stroke-width="1"/>
    <line x1="15" y1="75" x2="110" y2="75" stroke="#333" stroke-width="1"/>
    <line x1="15" y1="85" x2="80" y2="85" stroke="#333" stroke-width="1"/>
    <line x1="15" y1="95" x2="105" y2="95" stroke="#333" stroke-width="1"/>
    <line x1="15" y1="105" x2="90" y2="105" stroke="#333" stroke-width="1"/>
    <line x1="15" y1="115" x2="100" y2="115" stroke="#333" stroke-width="1"/>
    <line x1="15" y1="125" x2="85" y2="125" stroke="#333" stroke-width="1"/>
    <line x1="15" y1="135" x2="105" y2="135" stroke="#333" stroke-width="1"/>
    
    <!-- Document 3 (top) -->
    <rect x="10" y="-10" width="120" height="160" fill="url(#documentGradient)" stroke="#CCC" stroke-width="1" rx="3"/>
    <line x1="20" y1="10" x2="120" y2="10" stroke="#333" stroke-width="1"/>
    <line x1="20" y1="20" x2="100" y2="20" stroke="#333" stroke-width="1"/>
    <line x1="20" y1="30" x2="110" y2="30" stroke="#333" stroke-width="1"/>
    <line x1="20" y1="40" x2="95" y2="40" stroke="#333" stroke-width="1"/>
    <line x1="20" y1="50" x2="105" y2="50" stroke="#333" stroke-width="1"/>
    <line x1="20" y1="60" x2="90" y2="60" stroke="#333" stroke-width="1"/>
    <line x1="20" y1="70" x2="115" y2="70" stroke="#333" stroke-width="1"/>
    <line x1="20" y1="80" x2="85" y2="80" stroke="#333" stroke-width="1"/>
    <line x1="20" y1="90" x2="110" y2="90" stroke="#333" stroke-width="1"/>
    <line x1="20" y1="100" x2="95" y2="100" stroke="#333" stroke-width="1"/>
    <line x1="20" y1="110" x2="105" y2="110" stroke="#333" stroke-width="1"/>
    <line x1="20" y1="120" x2="90" y2="120" stroke="#333" stroke-width="1"/>
    <line x1="20" y1="130" x2="110" y2="130" stroke="#333" stroke-width="1"/>
  </g>
  
  <!-- Scales of Justice (blurred) -->
  <g transform="translate(200, 250)" opacity="0.7">
    <g fill="url(#scalesGradient)" stroke="#B8860B" stroke-width="2">
      <!-- Left Scale -->
      <ellipse cx="0" cy="0" rx="20" ry="10"/>
      <line x1="0" y1="0" x2="0" y2="30" stroke="#B8860B" stroke-width="3"/>
      
      <!-- Right Scale -->
      <ellipse cx="60" cy="0" rx="20" ry="10"/>
      <line x1="60" y1="0" x2="60" y2="30" stroke="#B8860B" stroke-width="3"/>
      
      <!-- Central Bar -->
      <line x1="0" y1="30" x2="60" y2="30" stroke="#B8860B" stroke-width="4"/>
      <line x1="30" y1="30" x2="30" y2="50" stroke="#B8860B" stroke-width="3"/>
    </g>
  </g>
  
  <!-- Laptop (blurred) -->
  <g transform="translate(150, 280)" opacity="0.6">
    <rect x="0" y="0" width="80" height="50" fill="#333" rx="3"/>
    <rect x="5" y="5" width="70" height="40" fill="#000"/>
    <rect x="10" y="10" width="60" height="30" fill="#1a1a1a"/>
  </g>
  
  <!-- Lighting Effect -->
  <defs>
    <radialGradient id="lightGradient" cx="50%" cy="50%" r="50%">
      <stop offset="0%" style="stop-color:rgba(255,255,255,0.3);stop-opacity:1" />
      <stop offset="100%" style="stop-color:rgba(255,255,255,0);stop-opacity:1" />
    </radialGradient>
  </defs>
  <ellipse cx="400" cy="200" rx="200" ry="150" fill="url(#lightGradient)"/>
</svg>
