<svg xmlns="http://www.w3.org/2000/svg" viewBox="0 0 400 300" fill="none">
  <defs>
    <linearGradient id="woodGradient" x1="0%" y1="0%" x2="100%" y2="100%">
      <stop offset="0%" style="stop-color:#8B4513;stop-opacity:1" />
      <stop offset="50%" style="stop-color:#A0522D;stop-opacity:1" />
      <stop offset="100%" style="stop-color:#654321;stop-opacity:1" />
    </linearGradient>
    <linearGradient id="gavelGradient" x1="0%" y1="0%" x2="100%" y2="100%">
      <stop offset="0%" style="stop-color:#CD853F;stop-opacity:1" />
      <stop offset="50%" style="stop-color:#D2691E;stop-opacity:1" />
      <stop offset="100%" style="stop-color:#8B4513;stop-opacity:1" />
    </linearGradient>
    <linearGradient id="bookGradient" x1="0%" y1="0%" x2="100%" y2="100%">
      <stop offset="0%" style="stop-color:#2C1810;stop-opacity:1" />
      <stop offset="100%" style="stop-color:#8B4513;stop-opacity:1" />
    </linearGradient>
  </defs>
  
  <!-- Background Books (blurred) -->
  <g opacity="0.4" transform="translate(50, 50)">
    <!-- Book 1 -->
    <rect x="0" y="0" width="40" height="60" fill="url(#bookGradient)" rx="2"/>
    <rect x="3" y="3" width="34" height="4" fill="#8B0000"/>
    <!-- Book 2 -->
    <rect x="50" y="0" width="40" height="60" fill="url(#bookGradient)" rx="2"/>
    <rect x="53" y="3" width="34" height="4" fill="#8B0000"/>
    <!-- Book 3 -->
    <rect x="100" y="0" width="40" height="60" fill="url(#bookGradient)" rx="2"/>
    <rect x="103" y="3" width="34" height="4" fill="#8B0000"/>
    <!-- Book 4 -->
    <rect x="150" y="0" width="40" height="60" fill="url(#bookGradient)" rx="2"/>
    <rect x="153" y="3" width="34" height="4" fill="#8B0000"/>
    <!-- Book 5 -->
    <rect x="200" y="0" width="40" height="60" fill="url(#bookGradient)" rx="2"/>
    <rect x="203" y="3" width="34" height="4" fill="#8B0000"/>
    <!-- Book 6 -->
    <rect x="250" y="0" width="40" height="60" fill="url(#bookGradient)" rx="2"/>
    <rect x="253" y="3" width="34" height="4" fill="#8B0000"/>
  </g>
  
  <!-- Wooden Surface -->
  <rect x="50" y="200" width="300" height="20" fill="url(#woodGradient)"/>
  <rect x="50" y="220" width="300" height="10" fill="#654321"/>
  
  <!-- Sound Block (Base) -->
  <g fill="url(#gavelGradient)" stroke="#8B4513" stroke-width="2">
    <!-- Main block -->
    <rect x="150" y="180" width="100" height="20" rx="5"/>
    
    <!-- Concentric rings on top -->
    <circle cx="200" cy="190" r="35" fill="none" stroke="#8B4513" stroke-width="1"/>
    <circle cx="200" cy="190" r="25" fill="none" stroke="#8B4513" stroke-width="1"/>
    <circle cx="200" cy="190" r="15" fill="none" stroke="#8B4513" stroke-width="1"/>
    <circle cx="200" cy="190" r="5" fill="none" stroke="#8B4513" stroke-width="1"/>
  </g>
  
  <!-- Gavel -->
  <g fill="url(#gavelGradient)" stroke="#8B4513" stroke-width="2">
    <!-- Handle -->
    <rect x="195" y="120" width="10" height="60" rx="5"/>
    
    <!-- Head -->
    <rect x="175" y="100" width="50" height="30" rx="5"/>
    
    <!-- Face details -->
    <rect x="180" y="105" width="40" height="20" fill="url(#woodGradient)" rx="3"/>
  </g>
  
  <!-- Wood grain details -->
  <g stroke="#654321" stroke-width="1" opacity="0.6">
    <!-- Gavel head grain -->
    <line x1="180" y1="110" x2="220" y2="110"/>
    <line x1="180" y1="115" x2="220" y2="115"/>
    <line x1="180" y1="120" x2="220" y2="120"/>
    <line x1="180" y1="125" x2="220" y2="125"/>
    
    <!-- Handle grain -->
    <line x1="200" y1="125" x2="200" y2="175"/>
    <line x1="198" y1="130" x2="198" y2="170"/>
    <line x1="202" y1="135" x2="202" y2="165"/>
    
    <!-- Sound block grain -->
    <line x1="160" y1="185" x2="240" y2="185"/>
    <line x1="160" y1="190" x2="240" y2="190"/>
    <line x1="160" y1="195" x2="240" y2="195"/>
  </g>
  
  <!-- Reflection on surface -->
  <rect x="150" y="200" width="100" height="20" fill="url(#gavelGradient)" opacity="0.2"/>
  
  <!-- Shadow -->
  <ellipse cx="200" cy="230" rx="60" ry="10" fill="rgba(0,0,0,0.2)"/>
</svg>
