<svg xmlns="http://www.w3.org/2000/svg" viewBox="0 0 400 500" fill="none">
  <defs>
    <linearGradient id="bgGradient" x1="0%" y1="0%" x2="100%" y2="100%">
      <stop offset="0%" style="stop-color:#FFFFFF;stop-opacity:1" />
      <stop offset="100%" style="stop-color:#F0F0F0;stop-opacity:1" />
    </linearGradient>
    <linearGradient id="suitGradient" x1="0%" y1="0%" x2="100%" y2="100%">
      <stop offset="0%" style="stop-color:#333333;stop-opacity:1" />
      <stop offset="100%" style="stop-color:#1A1A1A;stop-opacity:1" />
    </linearGradient>
    <linearGradient id="tieGradient" x1="0%" y1="0%" x2="100%" y2="100%">
      <stop offset="0%" style="stop-color:#8B0000;stop-opacity:1" />
      <stop offset="100%" style="stop-color:#660000;stop-opacity:1" />
    </linearGradient>
    <linearGradient id="skinGradient" x1="0%" y1="0%" x2="100%" y2="100%">
      <stop offset="0%" style="stop-color:#F5DEB3;stop-opacity:1" />
      <stop offset="100%" style="stop-color:#DEB887;stop-opacity:1" />
    </linearGradient>
    <linearGradient id="hairGradient" x1="0%" y1="0%" x2="100%" y2="100%">
      <stop offset="0%" style="stop-color:#2C1810;stop-opacity:1" />
      <stop offset="100%" style="stop-color:#1A0F0A;stop-opacity:1" />
    </linearGradient>
    <linearGradient id="glassesGradient" x1="0%" y1="0%" x2="100%" y2="100%">
      <stop offset="0%" style="stop-color:#2C2C2C;stop-opacity:1" />
      <stop offset="100%" style="stop-color:#1A1A1A;stop-opacity:1" />
    </linearGradient>
  </defs>
  
  <!-- Background -->
  <rect width="400" height="500" fill="url(#bgGradient)"/>
  
  <!-- Blurred background elements -->
  <g opacity="0.1" transform="translate(50, 50)">
    <!-- Corner line -->
    <line x1="0" y1="0" x2="100" y2="0" stroke="#333" stroke-width="2"/>
    <line x1="0" y1="0" x2="0" y2="100" stroke="#333" stroke-width="2"/>
    
    <!-- Plant -->
    <ellipse cx="300" cy="400" rx="20" ry="30" fill="#228B22"/>
    <ellipse cx="320" cy="380" rx="15" ry="25" fill="#228B22"/>
    <ellipse cx="280" cy="380" rx="15" ry="25" fill="#228B22"/>
  </g>
  
  <!-- Attorney Portrait -->
  <g transform="translate(200, 250)">
    <!-- Head -->
    <ellipse cx="0" cy="0" rx="60" ry="70" fill="url(#skinGradient)"/>
    
    <!-- Hair -->
    <path d="M -60 0 Q -60 -30 -40 -50 Q -20 -60 0 -60 Q 20 -60 40 -50 Q 60 -30 60 0 Q 60 20 50 30 Q 40 40 30 45 Q 20 50 10 50 Q 0 50 -10 50 Q -20 50 -30 45 Q -40 40 -50 30 Q -60 20 -60 0" fill="url(#hairGradient)"/>
    
    <!-- Glasses -->
    <g fill="none" stroke="url(#glassesGradient)" stroke-width="3">
      <!-- Left lens -->
      <ellipse cx="-25" cy="-10" rx="20" ry="18"/>
      <!-- Right lens -->
      <ellipse cx="25" cy="-10" rx="20" ry="18"/>
      <!-- Bridge -->
      <line x1="-5" y1="-10" x2="5" y2="-10"/>
      <!-- Left temple -->
      <line x1="-45" y1="-10" x2="-55" y2="-15"/>
      <!-- Right temple -->
      <line x1="45" y1="-10" x2="55" y2="-15"/>
    </g>
    
    <!-- Eyes -->
    <circle cx="-25" cy="-10" r="3" fill="#333"/>
    <circle cx="25" cy="-10" r="3" fill="#333"/>
    <circle cx="-23" cy="-12" r="1" fill="#FFF"/>
    <circle cx="27" cy="-12" r="1" fill="#FFF"/>
    
    <!-- Nose -->
    <ellipse cx="0" cy="0" rx="8" ry="12" fill="url(#skinGradient)"/>
    
    <!-- Mouth -->
    <path d="M -15 15 Q 0 25 15 15" stroke="#8B4513" stroke-width="2" fill="none"/>
    
    <!-- Ears -->
    <ellipse cx="-55" cy="0" rx="8" ry="15" fill="url(#skinGradient)"/>
    <ellipse cx="55" cy="0" rx="8" ry="15" fill="url(#skinGradient)"/>
    
    <!-- Neck -->
    <rect x="-25" y="70" width="50" height="30" fill="url(#skinGradient)"/>
    
    <!-- Suit -->
    <g fill="url(#suitGradient)">
      <!-- Jacket -->
      <path d="M -40 100 L -50 150 L 50 150 L 40 100 Z"/>
      <rect x="-40" y="100" width="80" height="50" fill="url(#suitGradient)"/>
      
      <!-- Lapels -->
      <path d="M -40 100 L -30 120 L -20 100 Z" fill="url(#suitGradient)"/>
      <path d="M 40 100 L 30 120 L 20 100 Z" fill="url(#suitGradient)"/>
      
      <!-- Pants -->
      <rect x="-30" y="150" width="60" height="80" fill="url(#suitGradient)"/>
    </g>
    
    <!-- Shirt -->
    <rect x="-25" y="100" width="50" height="50" fill="#FFF"/>
    
    <!-- Tie -->
    <g fill="url(#tieGradient)">
      <path d="M -5 100 L -15 150 L 15 150 L 5 100 Z"/>
      <path d="M -5 100 L -8 110 L 8 110 L 5 100 Z"/>
    </g>
    
    <!-- Arms -->
    <g fill="url(#suitGradient)">
      <!-- Left arm -->
      <ellipse cx="-60" cy="120" rx="15" ry="25"/>
      <ellipse cx="-70" cy="140" rx="12" ry="20"/>
      
      <!-- Right arm -->
      <ellipse cx="60" cy="120" rx="15" ry="25"/>
      <ellipse cx="70" cy="140" rx="12" ry="20"/>
    </g>
    
    <!-- Hands -->
    <g fill="url(#skinGradient)">
      <ellipse cx="-70" cy="160" rx="8" ry="12"/>
      <ellipse cx="70" cy="160" rx="8" ry="12"/>
    </g>
    
    <!-- Suit buttons -->
    <circle cx="0" cy="120" r="2" fill="#666"/>
    <circle cx="0" cy="130" r="2" fill="#666"/>
    <circle cx="0" cy="140" r="2" fill="#666"/>
    
    <!-- Tie clip -->
    <rect x="-3" y="125" width="6" height="8" fill="#FFD700"/>
    
    <!-- Expression - focused look -->
    <g opacity="0.8">
      <!-- Eyebrows -->
      <path d="M -35 -25 Q -25 -30 -15 -25" stroke="#333" stroke-width="2" fill="none"/>
      <path d="M 35 -25 Q 25 -30 15 -25" stroke="#333" stroke-width="2" fill="none"/>
    </g>
  </g>
  
  <!-- Professional lighting effect -->
  <defs>
    <radialGradient id="lightGradient" cx="50%" cy="50%" r="50%">
      <stop offset="0%" style="stop-color:rgba(255,255,255,0.4);stop-opacity:1" />
      <stop offset="100%" style="stop-color:rgba(255,255,255,0);stop-opacity:1" />
    </radialGradient>
  </defs>
  <ellipse cx="200" cy="200" rx="150" ry="200" fill="url(#lightGradient)"/>
</svg>
